<svg width="25" height="26" viewBox="0 0 25 26" fill="none" xmlns="http://www.w3.org/2000/svg">
<path fill-rule="evenodd" clip-rule="evenodd" d="M14.3977 7.82658C14.3977 6.69226 13.4752 5.7698 12.3409 5.7698C11.2066 5.7698 10.2841 6.69226 10.2841 7.82658C10.2841 8.96089 11.2066 9.88336 12.3409 9.88336C13.4752 9.88336 14.3977 8.96089 14.3977 7.82658ZM16.4544 7.82656C16.4544 10.0952 14.6094 11.9401 12.3408 11.9401C10.0722 11.9401 8.22723 10.0952 8.22723 7.82656C8.22723 5.55793 10.0722 3.71299 12.3408 3.71299C14.6094 3.71299 16.4544 5.55793 16.4544 7.82656ZM5.14209 21.1957C5.14209 17.2261 8.37226 13.9969 12.3408 13.9969C16.3094 13.9969 19.5396 17.2261 19.5396 21.1957C19.5396 21.7633 19.0799 22.2241 18.5112 22.2241C17.9425 22.2241 17.4828 21.7633 17.4828 21.1957C17.4828 18.3604 15.1761 16.0537 12.3408 16.0537C9.50555 16.0537 7.19887 18.3604 7.19887 21.1957C7.19887 21.7633 6.73918 22.2241 6.17048 22.2241C5.60178 22.2241 5.14209 21.7633 5.14209 21.1957Z" fill="black"/>
<mask id="mask0_180_1804" style="mask-type:luminance" maskUnits="userSpaceOnUse" x="5" y="3" width="15" height="20">
<path fill-rule="evenodd" clip-rule="evenodd" d="M14.3977 7.82658C14.3977 6.69226 13.4752 5.7698 12.3409 5.7698C11.2066 5.7698 10.2841 6.69226 10.2841 7.82658C10.2841 8.96089 11.2066 9.88336 12.3409 9.88336C13.4752 9.88336 14.3977 8.96089 14.3977 7.82658ZM16.4544 7.82656C16.4544 10.0952 14.6094 11.9401 12.3408 11.9401C10.0722 11.9401 8.22723 10.0952 8.22723 7.82656C8.22723 5.55793 10.0722 3.71299 12.3408 3.71299C14.6094 3.71299 16.4544 5.55793 16.4544 7.82656ZM5.14209 21.1957C5.14209 17.2261 8.37226 13.9969 12.3408 13.9969C16.3094 13.9969 19.5396 17.2261 19.5396 21.1957C19.5396 21.7633 19.0799 22.2241 18.5112 22.2241C17.9425 22.2241 17.4828 21.7633 17.4828 21.1957C17.4828 18.3604 15.1761 16.0537 12.3408 16.0537C9.50555 16.0537 7.19887 18.3604 7.19887 21.1957C7.19887 21.7633 6.73918 22.2241 6.17048 22.2241C5.60178 22.2241 5.14209 21.7633 5.14209 21.1957Z" fill="white"/>
</mask>
<g mask="url(#mask0_180_1804)">
<rect y="0.627808" width="24.6814" height="24.6814" fill="white"/>
</g>
</svg>
